<svg xmlns="http://www.w3.org/2000/svg" viewBox="0 0 240 60" width="240" height="60">
  <!-- MotelBoost Logo - White Version -->
  
  <!-- Stylized "M" -->
  <path d="M20 10 L30 35 L40 10 L50 35 L60 10 L60 50 L50 50 L50 25 L40 50 L30 25 L30 50 L20 50 Z" fill="#ffffff"/>
  
  <!-- Stylized "B" -->
  <path d="M70 10 L100 10 C105 10 110 15 110 20 C110 25 105 28 100 28 C107 28 112 33 112 38 C112 45 107 50 100 50 L70 50 Z" fill="#ffffff"/>
  <path d="M80 20 L95 20 C97 20 98 21 98 23 C98 25 97 26 95 26 L80 26 Z" fill="#0056b3"/>
  <path d="M80 34 L97 34 C99 34 100 35 100 37 C100 39 99 40 97 40 L80 40 Z" fill="#0056b3"/>
  
  <!-- Boost Arrow -->
  <path d="M120 30 L130 20 L140 30 L135 30 L135 40 L125 40 L125 30 Z" fill="#ff9800"/>
  
  <!-- MotelBoost Text (converted to paths) -->
  <path d="M20 55 L22 55 L22 57 L20 57 Z" fill="none"/> <!-- Placeholder to maintain spacing -->
  <path d="M150 40 L150 20 L153 20 L156 30 L159 20 L162 20 L162 40 L159 40 L159 26 L156 36 L153 26 L153 40 Z" fill="#ffffff"/>
  <path d="M164 40 L164 20 L171 20 C173 20 174 21 174 23 L174 25 C174 27 173 28 171 28 L167 28 L167 40 Z M167 25 L170 25 C171 25 171 25 171 24 L171 23 C171 22 170 22 170 22 L167 22 Z" fill="#ffffff"/>
  <path d="M176 40 L176 20 L186 20 L186 23 L179 23 L179 28 L184 28 L184 31 L179 31 L179 37 L186 37 L186 40 Z" fill="#ffffff"/>
  <path d="M188 40 L188 20 L191 20 L191 37 L198 37 L198 40 Z" fill="#ffffff"/>
  <path d="M200 40 L200 20 L207 20 C209 20 210 21 210 23 L210 25 C210 27 209 28 207 28 C209 28 210 29 210 31 L210 37 C210 39 209 40 207 40 Z M203 28 L206 28 C207 28 207 28 207 27 L207 24 C207 23 206 23 206 23 L203 23 Z M203 37 L206 37 C207 37 207 37 207 36 L207 31 C207 30 206 30 206 30 L203 30 Z" fill="#ffffff"/>
  <path d="M212 40 L212 20 L222 20 C224 20 225 21 225 23 L225 37 C225 39 224 40 222 40 Z M215 37 L221 37 C222 37 222 37 222 36 L222 24 C222 23 221 23 221 23 L215 23 Z" fill="#ffffff"/>
  <path d="M227 40 L227 20 L237 20 C239 20 240 21 240 23 L240 37 C240 39 239 40 237 40 Z M230 37 L236 37 C237 37 237 37 237 36 L237 24 C237 23 236 23 236 23 L230 23 Z" fill="#ffffff"/>
  <path d="M242 40 L242 20 L252 20 C254 20 255 21 255 23 L255 28 C255 30 254 31 252 31 L245 31 L245 40 Z M245 28 L251 28 C252 28 252 28 252 27 L252 24 C252 23 251 23 251 23 L245 23 Z" fill="#ffffff"/>
  <path d="M257 40 L257 20 L260 20 L260 40 Z" fill="#ffffff"/>
</svg>